<svg width="841" height="417" viewBox="0 0 841 417" fill="none" xmlns="http://www.w3.org/2000/svg">
<path d="M153.179 113.389C236.147 113.389 303.406 180.649 303.406 263.617C303.405 346.585 236.147 413.844 153.179 413.844C70.2109 413.844 2.9516 346.585 2.95148 263.617C2.95148 180.648 70.2108 113.389 153.179 113.389Z" stroke="#EEEEEE" stroke-width="5"/>
<path d="M305.906 113.389C388.874 113.389 456.133 180.648 456.133 263.617C456.133 346.585 388.874 413.844 305.906 413.844C222.938 413.844 155.679 346.585 155.679 263.617C155.679 180.648 222.938 113.389 305.906 113.389Z" stroke="#EEEEEE" stroke-width="5"/>
<path d="M458.633 2.80333C563.833 2.80335 658.958 19.8639 727.691 47.357C762.064 61.1064 789.713 77.4165 808.728 95.399C827.738 113.377 837.952 132.853 837.952 153.031C837.952 173.209 827.738 192.685 808.728 210.663C789.713 228.645 762.064 244.954 727.691 258.704C658.958 286.197 563.833 303.258 458.633 303.258C353.434 303.258 258.309 286.197 189.576 258.704C155.202 244.954 127.553 228.645 108.538 210.663C89.5282 192.685 79.3151 173.209 79.315 153.031C79.315 132.853 89.5282 113.376 108.538 95.399C127.553 77.4165 155.202 61.1064 189.576 47.357C258.309 19.8639 353.434 2.80333 458.633 2.80333Z" stroke="#EEEEEE" stroke-width="5"/>
</svg>
